<?xml version="1.0" encoding="UTF-8" standalone="no"?>
<!-- Created with Inkscape (http://www.inkscape.org/) -->

<svg
   width="1024"
   height="512"
   viewBox="0 0 270.93319 135.46666"
   version="1.1"
   id="svg1"
   inkscape:export-filename="Rastergrafik.svg"
   inkscape:export-xdpi="96"
   inkscape:export-ydpi="96"
   sodipodi:docname="pickflickWhite.svg"
   inkscape:version="1.4.2 (f4327f4, 2025-05-13)"
   xmlns:inkscape="http://www.inkscape.org/namespaces/inkscape"
   xmlns:sodipodi="http://sodipodi.sourceforge.net/DTD/sodipodi-0.dtd"
   xmlns="http://www.w3.org/2000/svg"
   xmlns:svg="http://www.w3.org/2000/svg">
  <sodipodi:namedview
     id="namedview1"
     pagecolor="#ffffff"
     bordercolor="#000000"
     borderopacity="0.25"
     inkscape:showpageshadow="2"
     inkscape:pageopacity="0.0"
     inkscape:pagecheckerboard="0"
     inkscape:deskcolor="#d1d1d1"
     inkscape:document-units="mm"
     inkscape:zoom="0.56969051"
     inkscape:cx="687.21523"
     inkscape:cy="239.60378"
     inkscape:window-width="1920"
     inkscape:window-height="1027"
     inkscape:window-x="1912"
     inkscape:window-y="-8"
     inkscape:window-maximized="1"
     inkscape:current-layer="layer1">
    <inkscape:page
       x="0"
       y="0"
       width="270.9332"
       height="135.46666"
       id="page2"
       margin="0"
       bleed="0" />
  </sodipodi:namedview>
  <defs
     id="defs1" />
  <g
     inkscape:label="Ebene 1"
     inkscape:groupmode="layer"
     id="layer1">
    <path
       style="fill:#ffffff;fill-opacity:1;stroke:none;stroke-width:0.2;stroke-dasharray:none;stroke-opacity:1"
       d="m 21.720752,114.34428 c -0.225777,-0.0303 -2.643844,-0.1652 -5.373482,-0.29987 -5.39803,-0.26633 -6.023312,-0.38241 -6.216988,-1.15407 -0.108544,-0.43248 1.236444,-22.39794 1.990881,-32.513768 0.222267,-2.980267 0.404157,-5.807961 0.4042,-6.283764 4.8e-5,-0.54229 -0.216358,-1.534597 -0.579953,-2.659306 -1.299636,-4.020174 -1.633866,-6.841673 -1.508166,-12.731596 0.08814,-4.129726 0.271702,-5.664174 1.040834,-8.700418 2.195169,-8.6657 8.415985,-17.204098 16.153948,-22.172147 3.80773,-2.4447 9.273222,-4.421963 14.531877,-5.257229 2.269093,-0.360413 7.46298,-0.49639 9.787675,-0.256241 7.236767,0.747583 13.871543,3.49232 19.604487,8.110173 1.572154,1.266359 4.479166,4.18575 5.755677,5.780185 3.540541,4.422339 6.207371,10.010958 7.476948,15.66872 0.819806,3.653406 0.775253,12.700598 -0.08092,16.432773 -2.604328,11.352554 -9.704819,20.339053 -20.048188,25.373314 -3.924202,1.909964 -7.035239,2.874484 -11.165737,3.461732 -2.477878,0.35229 -8.499511,0.403794 -10.755233,0.09199 -4.921165,-0.680241 -9.361326,-2.189114 -13.546666,-4.603477 -1.829573,-1.055412 -2.628194,-1.324224 -2.952891,-0.993928 -0.173212,0.176196 -0.371441,2.264682 -0.809207,8.525567 -0.31889,4.56071 -0.62787,9.28972 -0.686623,10.50892 -0.06384,1.32472 -0.198958,2.41786 -0.335785,2.71655 -0.403346,0.88051 -1.181934,1.15752 -2.686685,0.95589 z m 0.39861,-3.07091 c 0.220783,-0.22078 0.463786,-0.75719 0.572354,-1.26342 0.236622,-1.10334 0.252958,-4.14654 0.02455,-4.57333 -0.216953,-0.40537 -1.223351,-0.62595 -3.929459,-0.86122 -2.29372,-0.19942 -5.045685,-0.11393 -5.582611,0.17343 -0.71333,0.38176 -0.904361,1.08692 -0.915076,3.37788 -0.01126,2.40819 0.09722,2.74797 0.969272,3.03577 0.738059,0.24358 3.349458,0.44166 6.212047,0.4712 2.17053,0.0224 2.281284,0.007 2.648924,-0.36031 z m 0.627367,-9.95786 c 0.513923,-0.40426 0.786962,-1.707196 0.831294,-3.966928 0.04839,-2.466491 -0.0413,-2.51501 -5.148428,-2.785208 -4.826621,-0.255352 -5.108024,-0.142679 -5.407572,2.165194 -0.360002,2.773643 -0.134503,4.246002 0.69208,4.518822 0.52973,0.17484 3.247321,0.33761 6.137233,0.36759 2.247881,0.0233 2.520927,-0.005 2.895393,-0.29947 z m 0.828636,-10.064338 c 0.915225,-0.59984 0.45774,-1.583566 -1.850036,-3.978117 -1.863471,-1.933537 -3.759496,-4.177389 -4.957027,-5.866391 -1.785584,-2.518397 -2.269299,-2.640373 -2.583945,-0.651577 -0.440216,2.782499 -0.664818,9.28709 -0.341538,9.891141 0.424584,0.793343 1.492154,0.954966 6.079051,0.920322 2.769347,-0.02093 3.270172,-0.06415 3.653495,-0.315378 z m 13.7878,-4.891075 c 3.002883,-0.58289 5.709121,-3.552608 6.95638,-7.633647 0.396227,-1.296458 0.449824,-1.740715 0.454636,-3.768545 0.0052,-2.190477 -0.02074,-2.375312 -0.550397,-3.921537 -1.238675,-3.616085 -4.077824,-6.493407 -7.560648,-7.662299 -0.910939,-0.305726 -1.452234,-0.360077 -3.694546,-0.37097 -3.055366,-0.01484 -4.000651,0.173228 -6.157574,1.225087 -1.119344,0.545865 -1.675368,0.96026 -2.807975,2.092738 -2.13374,2.133491 -2.895674,4.009011 -2.733738,6.729156 0.255328,4.288882 3.467394,9.004194 8.072862,11.850959 2.551079,1.576891 5.06145,2.03354 8.021,1.459058 z M 63.47944,86.230441 c 3.325627,-1.193403 6.498492,-3.719864 8.557125,-6.813801 1.768816,-2.658367 2.462088,-4.831027 2.366396,-7.416099 -0.05699,-1.539616 -0.110448,-1.768583 -0.683721,-2.928517 -1.457258,-2.948564 -4.862822,-5.442939 -8.232348,-6.029716 -2.565763,-0.44681 -6.574671,0.141348 -8.645422,1.268391 -1.87656,1.021353 -3.646877,2.944392 -4.671333,5.074325 -0.920866,1.914559 -1.255421,3.454072 -1.264573,5.819185 -0.0097,2.502958 0.267618,3.775829 1.274807,5.851564 1.15053,2.371143 3.389794,4.41116 5.839333,5.31975 1.199227,0.44482 4.025128,0.369728 5.459736,-0.145082 z M 49.889143,65.337756 c 3.147327,-0.972111 4.702908,-4.997082 3.161718,-8.180758 -1.515464,-3.130534 -5.881989,-4.118694 -8.780544,-1.987071 -1.606463,1.181404 -2.571017,3.550065 -2.237801,5.495369 0.343188,2.003521 1.410618,3.541557 3.038575,4.378212 1.412222,0.725786 3.089294,0.828206 4.818052,0.294248 z M 36.771761,56.12348 c 1.756211,-0.526309 2.945963,-1.258165 4.441846,-2.732336 1.578054,-1.555149 2.3291,-2.735776 3.010857,-4.733004 0.530781,-1.554935 0.551337,-1.708592 0.556374,-4.159708 0.005,-2.445684 -0.01529,-2.604185 -0.520237,-4.056475 -1.153633,-3.318023 -3.186766,-5.816907 -5.611071,-6.89646 -0.491676,-0.218945 -1.510446,-0.471292 -2.285392,-0.566081 -2.343854,-0.2867 -4.568909,0.195225 -6.636432,1.437388 -3.662019,2.200138 -6.584077,5.52381 -7.879798,8.962822 -0.472231,1.25336 -0.515288,1.533125 -0.525997,3.417633 -0.0099,1.746808 0.04333,2.198312 0.357533,3.031313 1.189148,3.152582 4.038656,5.471443 8.005105,6.514359 1.696908,0.446177 5.231294,0.336735 7.087212,-0.219451 z m 29.21622,0.199123 c 3.886342,-0.977784 7.15057,-3.737986 8.115638,-6.862514 0.607597,-1.967166 0.383588,-4.52918 -0.588121,-6.726383 -1.431311,-3.236449 -5.113676,-7.047365 -8.445413,-8.740238 -2.124847,-1.079645 -4.770887,-1.473112 -6.598004,-0.981122 -3.351371,0.902433 -6.162807,4.074313 -7.197209,8.119943 -0.462537,1.809015 -0.465796,4.800473 -0.0073,6.730839 0.984822,4.146616 4.157374,7.338991 8.396557,8.449019 1.705743,0.446645 4.571352,0.451384 6.323889,0.01045 z"
       id="path3"
       sodipodi:nodetypes="ssssssssssssssssssssssssssssssssssscssssscsssssssssssssssssssssssssssssssssssssscsssssccsscssssscscc" />
    <path
       style="fill:#ffffff;fill-opacity:1;stroke:none;stroke-width:0.2;stroke-dasharray:none;stroke-opacity:1"
       d="m 104.64278,112.6395 c -0.4064,-0.0846 -1.36448,-0.46262 -2.12907,-0.83999 -1.99448,-0.98442 -3.582553,-2.60608 -4.722323,-4.82222 -0.46448,-0.9031 -0.94871,-1.78222 -1.07606,-1.95358 -0.36451,-0.49046 -0.94779,-0.22878 -1.50645,0.67583 -0.67378,1.09103 -4.270564,4.60975 -5.395194,5.27809 -1.405652,0.83536 -2.002695,0.99269 -3.797049,1.00062 -1.328552,0.006 -1.762638,-0.0564 -2.339443,-0.33563 -0.921861,-0.44627 -1.91222,-1.52909 -2.67286,-3.05415 0,0 0.03239,0.0585 -0.40513,-1.21323 -0.233728,-0.6794 -0.313184,-1.90632 -0.363235,-2.91984 -0.05005,-1.01353 -0.04167,-1.85721 -0.04167,-1.85721 0.0099,-4.155655 0.2778,-4.291348 0.684887,-6.211922 0.505016,-2.382591 1.457439,-5.481886 2.035559,-6.623944 1.335003,-2.637255 3.369522,-3.239278 5.099762,-1.509038 0.549222,0.54922 0.700505,0.820706 0.69987,1.255943 -5.29e-4,0.305393 -0.407765,1.874076 -0.905153,3.48596 -1.25898,4.07998 -1.723413,6.418947 -1.836766,9.250291 -0.103566,2.58682 0.05305,3.58084 0.697489,4.42687 0.748612,0.98279 2.850854,1.12691 4.288004,0.29396 0.925251,-0.53626 2.62354,-2.42493 4.01726,-4.46762 1.36476,-2.00022 1.67757,-2.669848 2.31322,-4.951782 0.90525,-3.249795 2.20843,-5.512125 4.608232,-7.999955 2.20238,-2.283163 4.18241,-3.500662 6.76901,-4.162205 1.40893,-0.360344 3.62456,-0.431176 4.82567,-0.154276 2.00251,0.461653 3.65699,1.716482 4.48683,3.403021 0.50638,1.029157 0.53969,1.20342 0.53969,2.823842 0,1.590479 -0.0389,1.804874 -0.49261,2.712207 -1.06259,2.125183 -3.18894,2.323933 -3.93376,0.367688 -0.24131,-0.633785 -0.24247,-0.813675 -0.0129,-2.009708 0.13865,-0.72249 0.25211,-1.699842 0.25212,-2.171893 4e-5,-1.159738 -0.37406,-1.412862 -2.10925,-1.42716 -1.769,-0.01458 -2.71399,0.471958 -4.42262,2.277004 -2.52395,2.666383 -3.87431,6.237875 -3.8834,10.271057 -0.005,2.2234 0.37643,3.71783 1.2696,4.9741 1.16425,1.63753 2.51549,2.18517 5.03495,2.04061 2.48233,-0.14244 5.6634,-1.32735 7.79912,-2.90509 2.19041,-1.61815 5.46017,-4.8687 7.70637,-7.661073 l 0.80371,-0.999135 0.95957,-5.716852 c 3.65644,-21.784167 7.5115,-32.657645 12.37539,-34.90573 1.45754,-0.673672 3.21023,-0.311158 4.44926,0.920252 2.38608,2.37141 2.41545,7.450799 0.0839,14.504974 -2.00216,6.057514 -5.22481,12.013377 -10.25187,18.946778 -1.48573,2.049132 -1.95538,3.020976 -1.57386,3.256764 0.31907,0.197194 0.46933,0.07813 2.83236,-2.24424 3.20409,-3.148981 6.33516,-5.374196 8.64152,-6.141442 0.88146,-0.293233 1.35944,-0.343837 2.81898,-0.298458 1.64601,0.05118 1.80212,0.086 2.45993,0.548753 0.42517,0.299093 0.86795,0.816026 1.12187,1.309751 0.35935,0.698715 0.41948,1.02983 0.41948,2.30976 0,1.435386 -0.0284,1.551429 -0.72243,2.951993 -0.58002,1.170472 -1.00083,1.737503 -2.13463,2.876328 -0.77671,0.780148 -1.87247,1.727345 -2.43504,2.104879 -1.87073,1.255446 -4.78188,2.523009 -6.63549,2.889198 -0.23839,0.0471 -0.47408,0.19154 -0.52375,0.32098 -0.19368,0.50473 0.78138,1.94016 2.62533,3.86484 3.10243,3.23825 4.88425,4.37654 8.11275,5.18272 2.22813,0.55639 2.29247,0.59616 1.87307,1.15791 -0.48107,0.64435 -2.29422,1.68033 -3.17395,1.81351 -1.3915,0.21065 -3.61588,-0.14056 -4.96816,-0.78444 -2.32072,-1.10499 -5.42177,-3.92881 -8.58042,-7.81333 -1.15972,-1.42623 -1.9124,-2.21146 -2.1855,-2.28001 -0.73271,-0.18389 -0.71906,-0.23003 -2.17336,7.34158 -0.5095,2.65263 -1.04641,3.4949 -2.36416,3.70874 -0.51927,0.0843 -0.6623,0.0155 -1.39705,-0.67178 l -0.81854,-0.76565 0.0738,-1.3472 c 0.19835,-3.61802 0.40724,-6.6623 0.49524,-7.21742 0.0949,-0.59904 0.0839,-0.61576 -0.40652,-0.61576 -0.41336,0 -0.64529,0.17 -1.28812,0.94416 -3.65009,4.39583 -9.11606,8.31212 -12.90723,9.24785 -1.54318,0.38089 -5.48018,0.56579 -6.68876,0.31415 z m 32.27381,-15.115338 c 2.75509,-0.383199 4.64064,-1.29958 6.59003,-3.202781 1.9982,-1.950847 2.60381,-3.947105 1.52479,-5.026123 -0.47768,-0.477674 -0.54528,-0.495165 -1.68307,-0.435438 -2.1441,0.112554 -3.97269,1.241428 -7.04981,4.352155 -2.62592,2.654609 -3.56017,3.957608 -3.13934,4.378441 0.1683,0.168299 2.34727,0.129876 3.7574,-0.06625 z m -2.18423,-11.073193 c 1.96832,-2.572028 5.02356,-8.207079 6.58746,-12.149871 1.77782,-4.482078 2.63973,-8.235587 2.54168,-11.068716 -0.0652,-1.883738 -0.3676,-2.521929 -1.23654,-2.609514 -1.77423,-0.178837 -4.63727,6.76784 -7.59631,18.431102 -0.97042,3.825007 -1.65052,6.964675 -1.65052,7.619627 0,0.971473 0.50379,0.888653 1.35423,-0.222628 z"
       id="path4"
       sodipodi:nodetypes="sssssscsssssssscssssssssssscsssssssssscssssssssssssssssssssssssscscccssssssssssssssssssss" />
    <path
       style="fill:#ffffff;fill-opacity:1;stroke:none;stroke-width:0.2;stroke-dasharray:none;stroke-opacity:1"
       d="m 161.62953,112.38748 c -1.35596,-0.57014 -1.73278,-1.36707 -1.73274,-3.66447 5e-5,-2.05392 1.01224,-10.607393 1.80968,-15.292524 0.73217,-4.301728 0.91798,-3.981852 -2.18921,-3.768878 -3.79448,0.26008 -4.93527,-0.338206 -4.22201,-2.214232 0.32572,-0.856699 2.20474,-1.561878 5.3256,-1.998641 0.84981,-0.11893 1.75756,-0.385183 2.01721,-0.591675 0.27428,-0.218127 1.25178,-3.815527 2.3329,-8.585538 1.02344,-4.515557 1.93598,-8.46872 2.02787,-8.78481 0.21406,-0.736346 -0.87199,-0.754401 -5.30943,-0.08827 -2.90024,0.435372 -3.32139,0.433364 -4.01199,-0.01913 -0.99331,-0.650841 -1.20434,-1.234755 -0.75184,-2.080257 0.5114,-0.955572 1.70513,-1.48658 5.10581,-2.271239 8.59299,-1.982708 22.01463,-3.653814 29.90425,-3.723325 4.41931,-0.03894 4.549,-0.02003 5.21194,0.759351 0.37392,0.439605 1.22203,1.198071 1.8847,1.685475 0.72089,0.530228 1.3648,1.370857 1.60306,2.092783 0.53121,1.60959 0.21048,4.816041 -0.83102,8.307859 -0.45522,1.526201 -0.7096,2.892983 -0.5653,3.037292 0.14431,0.144309 0.87333,0.02238 1.62005,-0.270926 1.5967,-0.627202 2.61046,-0.44487 3.99257,0.718095 1.9443,1.636017 1.59593,4.658056 -0.69819,6.056794 -1.99875,1.218653 -4.00737,0.548992 -5.30058,-1.767175 -0.39109,-0.700453 -0.85569,-1.29158 -1.03246,-1.313614 -0.17676,-0.02204 -1.28197,1.393478 -2.45601,3.145589 -1.17405,1.752113 -3.24299,4.456226 -4.59766,6.009142 -2.42175,2.776167 -2.46955,2.865874 -2.85217,5.352849 -0.49043,3.187716 -0.54075,11.319365 -0.0803,12.977515 0.40947,1.47455 1.35517,2.5238 2.27473,2.5238 0.36072,0 1.24741,-0.53443 1.97042,-1.18763 l 1.31457,-1.18762 0.004,-3.32793 c 0.005,-3.832075 0.83543,-8.343522 2.15499,-11.706845 1.37599,-3.50716 2.95041,-4.547015 4.98348,-3.291421 1.24766,0.770527 1.29164,1.186275 0.42327,4.000354 -2.07649,6.729161 -2.72557,12.726662 -1.56853,14.493242 1.17946,1.8008 3.3227,1.56686 5.38749,-0.58807 2.09842,-2.19003 3.00422,-3.98533 3.39267,-6.724277 0.51277,-3.615529 2.15276,-6.763391 5.03898,-9.672021 3.10142,-3.12551 4.74116,-3.899609 8.59028,-4.055367 2.79105,-0.112942 3.03422,-0.0679 4.36669,0.808763 1.92091,1.263822 3.17476,3.782777 2.93625,5.898872 -0.19883,1.763995 -1.0909,3.108642 -2.36269,3.561379 -0.76985,0.274052 -0.9969,0.206991 -1.53059,-0.452094 -0.5446,-0.672542 -0.5988,-1.107842 -0.41396,-3.324272 0.20046,-2.403624 0.17094,-2.572745 -0.51297,-2.938762 -1.84317,-0.98643 -5.094,0.707869 -7.06711,3.683296 -1.86461,2.811825 -2.57481,5.202508 -2.60993,8.785523 -0.026,2.64747 0.0818,3.33013 0.71156,4.50878 1.17735,2.20349 3.67589,3.05579 7.10165,2.4225 3.08158,-0.56966 5.32639,-1.90683 8.81792,-5.25259 5.09844,-4.885582 5.27904,-5.210117 6.1426,-11.038208 3.85172,-25.994989 9.7971,-39.107109 16.01353,-35.316728 1.50185,0.915731 2.15566,2.405078 2.32755,5.302062 0.41569,7.005844 -4.46791,18.812489 -11.7728,28.46202 -1.50633,1.989828 -2.09292,3.687273 -1.27421,3.687273 0.19153,0 1.48462,-1.155139 2.87354,-2.566977 4.20673,-4.276159 7.73149,-6.291241 11.01415,-6.296723 1.72269,-0.0029 2.01794,0.100814 2.86306,1.005527 1.77679,1.902053 1.57418,4.535049 -0.57219,7.436025 -1.85861,2.512041 -5.26654,4.778401 -9.54821,6.349799 -1.28516,0.47166 -1.32132,0.82395 -0.23615,2.30075 2.72732,3.71157 6.63152,6.63022 9.72332,7.26882 1.05868,0.21867 1.92487,0.50266 1.92487,0.63108 0,0.52557 -2.06791,1.92245 -3.14511,2.12453 -3.68781,0.69183 -7.16635,-1.39304 -12.51327,-7.49985 -2.60469,-2.97487 -3.2145,-3.51271 -3.56865,-3.14753 -0.23493,0.24225 -0.80187,2.41535 -1.25987,4.82911 -0.45799,2.41376 -1.06379,4.74133 -1.34621,5.17236 -0.64003,0.9768 -1.82953,1.01614 -2.66419,0.0881 -0.5607,-0.62343 -0.61574,-1.15154 -0.53052,-5.09026 0.0665,-3.07582 -0.0151,-4.39467 -0.27194,-4.39467 -0.20186,0 -1.4752,1.178 -2.82964,2.61778 -2.90226,3.08512 -4.65138,4.42428 -7.99573,6.12166 -2.30223,1.16847 -2.6882,1.25819 -5.93575,1.37979 -3.20369,0.11996 -3.6006,0.0656 -5.1111,-0.69982 -1.84329,-0.93406 -3.69911,-2.82877 -4.7083,-4.80695 -0.37274,-0.73063 -0.77412,-1.32842 -0.89196,-1.32842 -0.11783,0 -1.2185,1.08989 -2.44593,2.42197 -2.76146,2.9969 -4.57294,3.95172 -7.09968,3.74218 -1.52205,-0.12622 -1.93368,-0.32492 -3.15382,-1.52239 l -1.40329,-1.37723 -0.63444,0.71626 c -1.00334,1.13274 -3.47457,2.58741 -4.39328,2.58606 -2.98728,-0.004 -4.96604,-3.84545 -5.45036,-10.57994 -0.60915,-8.470457 2.65681,-24.868824 6.89053,-34.597302 0.73131,-1.680461 1.0206,-2.717606 0.81551,-2.923693 -0.20587,-0.206856 -2.94758,-0.05584 -7.78165,0.428633 -11.32042,1.134528 -10.17811,0.836078 -10.74757,2.808002 -0.56272,1.948595 -2.95404,13.145193 -3.26295,15.27775 l -0.20952,1.446395 4.69174,-0.183332 c 5.45522,-0.213167 6.93311,0.08139 7.08822,1.412727 0.18978,1.628994 -0.74212,1.998718 -6.7475,2.677043 -3.02478,0.341659 -5.6034,0.725009 -5.73028,0.851887 -0.27901,0.279006 -1.313,7.069849 -2.23528,14.68036 -0.77296,6.37839 -1.07788,7.74271 -1.88551,8.43643 -0.9144,0.78544 -1.52259,0.8834 -2.61996,0.42199 z m 86.85753,-15.212452 c 2.74914,-0.855625 4.82524,-2.387234 5.99087,-4.419663 1.15379,-2.011762 1.21129,-2.628186 0.32759,-3.511883 -1.30518,-1.305179 -3.59213,-0.573466 -7.10034,2.271762 -1.85538,1.504749 -5.05061,5.282179 -5.05061,5.970876 0,0.520383 3.8147,0.316913 5.83249,-0.311092 z m -3.12591,-11.732931 c 1.55841,-2.051159 5.16322,-9.068697 6.31341,-12.290415 2.0998,-5.881597 2.70886,-10.725962 1.53135,-12.180125 -0.59087,-0.7297 -0.64672,-0.737568 -1.45867,-0.20556 -1.72146,1.127948 -4.41831,8.244808 -6.95346,18.349878 -2.09854,8.364778 -1.9806,9.679831 0.56737,6.326222 z m -52.8857,-2.448949 c 4.69986,-6.086422 8.11888,-16.199448 6.37602,-18.859397 -0.67382,-1.02838 -1.20184,-1.052568 -2.07999,-0.09528 -1.90838,2.080355 -5.73207,12.619619 -6.98258,19.246156 -0.59811,3.169434 0.0701,3.09694 2.68655,-0.29148 z"
       id="path6" />
    <path
       style="fill:#ffffff;fill-opacity:1;stroke:none;stroke-width:0.2;stroke-dasharray:none;stroke-opacity:1"
       d="m 87.964478,81.990758 c -1.619107,-0.435401 -2.636377,-1.835702 -2.636377,-3.629057 0,-1.849638 1.13065,-3.254829 2.924887,-3.635116 1.34542,-0.285158 2.39072,0.02751 3.38143,1.011454 1.237137,1.228685 1.513447,2.753864 0.77105,4.256016 -0.76686,1.551636 -2.76137,2.448381 -4.44099,1.996703 z"
       id="path3-8"
       sodipodi:nodetypes="ssssss" />
  </g>
</svg>
